# xmcd CD database file
#
# Track frame offsets:
#	150
#	17577
#	44331
#
# Disc length: 1157 seconds
#
# Revision: 0
# Processed by: cddbd v1.4PL0 Copyright (c) Steve Scherf et al.
# Submitted via: CDex 1.50
#
DISCID=1a048303
DTITLE=Dierks Bently - What was I thinking
DYEAR=2003
DGENRE=Country
TTITLE0=What Was I Thinking
TTITLE1=Whiskey Tears
TTITLE2=Data Track
EXTD=YEAR: 2003
EXTT0=
EXTT1=
EXTT2=
PLAYORDER=
